<svg width="16" height="16" viewBox="0 0 16 16" fill="none" xmlns="http://www.w3.org/2000/svg">
<g id="eye">
<path id="Vector" d="M7.9999 9.60002C8.42425 9.60002 8.83121 9.43145 9.13127 9.1314C9.43133 8.83134 9.5999 8.42437 9.5999 8.00002C9.5999 7.57568 9.43133 7.16871 9.13127 6.86865C8.83121 6.5686 8.42425 6.40002 7.9999 6.40002C7.57556 6.40002 7.16859 6.5686 6.86853 6.86865C6.56847 7.16871 6.3999 7.57568 6.3999 8.00002C6.3999 8.42437 6.56847 8.83134 6.86853 9.1314C7.16859 9.43145 7.57556 9.60002 7.9999 9.60002Z" fill="#B0B0B0"/>
<path id="Vector_2" fill-rule="evenodd" clip-rule="evenodd" d="M0.366211 8.00002C1.38541 4.75442 4.41741 2.40002 7.99981 2.40002C11.5822 2.40002 14.6142 4.75442 15.6334 8.00002C14.6142 11.2456 11.5822 13.6 7.99981 13.6C4.41741 13.6 1.38541 11.2456 0.366211 8.00002ZM11.1998 8.00002C11.1998 8.84872 10.8627 9.66265 10.2626 10.2628C9.66244 10.8629 8.8485 11.2 7.99981 11.2C7.15112 11.2 6.33719 10.8629 5.73707 10.2628C5.13695 9.66265 4.79981 8.84872 4.79981 8.00002C4.79981 7.15133 5.13695 6.3374 5.73707 5.73728C6.33719 5.13717 7.15112 4.80002 7.99981 4.80002C8.8485 4.80002 9.66244 5.13717 10.2626 5.73728C10.8627 6.3374 11.1998 7.15133 11.1998 8.00002Z" fill="#B0B0B0"/>
</g>
</svg>
