<svg width="100" height="100" viewBox="0 0 100 100" fill="none" xmlns="http://www.w3.org/2000/svg">
<g id="emoji-sad">
<path id="Vector" d="M38.2167 67.3833C41.3421 64.2588 45.5806 62.5036 50 62.5036C54.4194 62.5036 58.6579 64.2588 61.7833 67.3833M37.5 41.6667H37.5417M62.5 41.6667H62.5417M87.5 50C87.5 54.9246 86.53 59.8009 84.6455 64.3506C82.7609 68.9003 79.9987 73.0343 76.5165 76.5165C73.0343 79.9987 68.9003 82.7609 64.3506 84.6455C59.8009 86.53 54.9246 87.5 50 87.5C45.0754 87.5 40.1991 86.53 35.6494 84.6455C31.0997 82.7609 26.9657 79.9987 23.4835 76.5165C20.0013 73.0343 17.2391 68.9003 15.3545 64.3506C13.47 59.8009 12.5 54.9246 12.5 50C12.5 40.0544 16.4509 30.5161 23.4835 23.4835C30.5161 16.4509 40.0544 12.5 50 12.5C59.9456 12.5 69.4839 16.4509 76.5165 23.4835C83.5491 30.5161 87.5 40.0544 87.5 50Z" stroke="#B0B0B0" stroke-width="4" stroke-linecap="round" stroke-linejoin="round"/>
</g>
</svg>
