<svg width="32" height="32" viewBox="0 0 32 32" fill="none" xmlns="http://www.w3.org/2000/svg">
<path id="Subtract" fill-rule="evenodd" clip-rule="evenodd" d="M15.8133 31.1451C24.4138 31.1451 31.3858 24.173 31.3858 15.5726C31.3858 6.97207 24.4138 0 15.8133 0C7.21279 0 0.240723 6.97207 0.240723 15.5726C0.240723 24.173 7.21279 31.1451 15.8133 31.1451ZM23.4199 10.6338C24.0247 10.6338 24.1614 10.9487 24.0247 11.3818V11.3803C23.8118 12.3734 22.041 15.0052 21.4923 15.8207C21.388 15.9757 21.3278 16.0651 21.3309 16.0651C21.1163 16.4192 21.0383 16.5766 21.3309 16.9702C21.4369 17.116 21.6619 17.3386 21.9189 17.5929C22.1824 17.8536 22.4796 18.1476 22.7168 18.4264C23.5758 19.4102 24.2398 20.2366 24.4153 20.8072C24.5715 21.3778 24.2981 21.6731 23.7125 21.6731H21.7019C21.1689 21.6731 20.8942 21.3646 20.3088 20.7071C20.0579 20.4252 19.7499 20.0792 19.3399 19.6659C18.1491 18.5047 17.6218 18.3476 17.3292 18.3476C16.9191 18.3476 16.802 18.4459 16.802 19.0362V20.8663C16.802 21.3582 16.6461 21.6535 15.3574 21.6535C13.2296 21.6535 10.8676 20.3533 9.20833 17.9341C6.70962 14.392 6.02648 11.7159 6.02648 11.1844C6.02648 10.8891 6.12401 10.6138 6.70962 10.6138H8.73985C9.2475 10.6138 9.44411 10.8304 9.63765 11.4033C10.633 14.296 12.2923 16.8347 12.9754 16.8347C13.2312 16.8347 13.3464 16.716 13.3464 16.0667V13.0737C13.2982 12.2236 13.0046 11.8531 12.7869 11.5783C12.6519 11.408 12.5461 11.2744 12.5461 11.0861C12.5461 10.85 12.7412 10.6138 13.0537 10.6138H16.2164C16.6461 10.6138 16.802 10.85 16.802 11.3615V15.3962C16.802 15.829 16.9779 15.9864 17.1146 15.9864C17.3684 15.9864 17.5831 15.829 18.0515 15.3566C19.4962 13.7235 20.5307 11.2044 20.5307 11.2044C20.6674 10.9095 20.9016 10.6338 21.4089 10.6338H23.4199Z" fill="white"/>
</svg>
