<svg width="32" height="32" viewBox="0 0 32 32" fill="none" xmlns="http://www.w3.org/2000/svg">
<path id="Subtract" fill-rule="evenodd" clip-rule="evenodd" d="M15.5726 31.1451C24.173 31.1451 31.1451 24.173 31.1451 15.5726C31.1451 6.97207 24.173 0 15.5726 0C6.97207 0 0 6.97207 0 15.5726C0 24.173 6.97207 31.1451 15.5726 31.1451ZM6.82044 14.9536L21.4879 9.26824C22.584 8.82589 23.014 9.33459 22.7619 10.4891L20.3334 22.0479C20.1483 22.9859 19.6804 23.3161 18.8205 22.8044L15.1179 20.0175L12.9561 22.0737C12.6905 22.3046 12.2743 22.3025 12.0469 21.8378L12.2924 18.8282L20.1064 11.7166C20.544 11.3262 20.0354 11.2316 19.5387 11.5864L10.4406 17.2383L6.67778 16.0363C6.03056 15.7485 6.23019 15.2183 6.82044 14.9536Z" fill="white"/>
</svg>
