<svg width="32" height="32" viewBox="0 0 32 32" fill="none" xmlns="http://www.w3.org/2000/svg">
<path id="Subtract" fill-rule="evenodd" clip-rule="evenodd" d="M15.8206 31.1451C24.4211 31.1451 31.3932 24.173 31.3932 15.5726C31.3932 6.97207 24.4211 0 15.8206 0C7.22012 0 0.248047 6.97207 0.248047 15.5726C0.248047 24.173 7.22012 31.1451 15.8206 31.1451ZM18.7851 8.42385C18.0184 8.38789 17.7746 8.38069 15.8205 8.38069C13.8664 8.38069 13.6226 8.39004 12.8559 8.42385C12.0893 8.45981 11.5686 8.57992 11.1097 8.75828C10.6296 8.93861 10.1946 9.22162 9.83526 9.58753C9.46904 9.94665 9.18598 10.3817 9.00601 10.862C8.82764 11.3208 8.70753 11.8415 8.67157 12.6082C8.63561 13.3749 8.62842 13.6187 8.62842 15.5728C8.62842 17.5269 8.63777 17.7707 8.67157 18.5374C8.70753 19.3033 8.82764 19.8255 9.00601 20.2836C9.18648 20.7637 9.46947 21.1986 9.83526 21.5581C10.1945 21.9241 10.6295 22.2071 11.1097 22.3873C11.5686 22.565 12.09 22.6858 12.8559 22.7217C13.6226 22.7577 13.8664 22.7649 15.8205 22.7649C17.7746 22.7649 18.0184 22.7556 18.7851 22.7217C19.5511 22.6858 20.0732 22.565 20.5314 22.3873C21.0113 22.2066 21.4462 21.9237 21.8058 21.5581C22.172 21.1989 22.455 20.7639 22.635 20.2836C22.8127 19.8248 22.9335 19.3033 22.9695 18.5374C23.0054 17.7707 23.0126 17.5269 23.0126 15.5728C23.0126 13.6187 23.0033 13.3749 22.9695 12.6082C22.9335 11.8423 22.8127 11.3201 22.635 10.862C22.4545 10.382 22.1715 9.94706 21.8058 9.58753C21.4059 9.18837 21.006 8.94096 20.5314 8.75828C20.0725 8.57992 19.5511 8.45981 18.7851 8.42385ZM13.2777 13.03C13.9521 12.3556 14.8668 11.9767 15.8205 11.9767C16.7743 11.9767 17.6889 12.3556 18.3633 13.03C19.0377 13.7044 19.4166 14.6191 19.4166 15.5728C19.4166 16.5265 19.0377 17.4412 18.3633 18.1156C17.6889 18.79 16.7743 19.1688 15.8205 19.1688C14.8668 19.1688 13.9521 18.79 13.2777 18.1156C12.6033 17.4412 12.2245 16.5265 12.2245 15.5728C12.2245 14.6191 12.6033 13.7044 13.2777 13.03ZM20.2321 11.1612C20.4007 11.3298 20.4954 11.5585 20.4954 11.7969C20.4954 12.0354 20.4007 12.264 20.2321 12.4326C20.0635 12.6012 19.8348 12.696 19.5964 12.696C19.3579 12.696 19.1293 12.6012 18.9607 12.4326C18.7921 12.264 18.6974 12.0354 18.6974 11.7969C18.6974 11.5585 18.7921 11.3298 18.9607 11.1612C19.1293 10.9926 19.3579 10.8979 19.5964 10.8979C19.8348 10.8979 20.0635 10.9926 20.2321 11.1612ZM17.3462 14.0471C16.9416 13.6425 16.3928 13.4152 15.8205 13.4152C15.2483 13.4152 14.6995 13.6425 14.2948 14.0471C13.8902 14.4518 13.6629 15.0006 13.6629 15.5728C13.6629 16.145 13.8902 16.6938 14.2948 17.0985C14.6995 17.5031 15.2483 17.7304 15.8205 17.7304C16.3928 17.7304 16.9416 17.5031 17.3462 17.0985C17.7508 16.6938 17.9782 16.145 17.9782 15.5728C17.9782 15.0006 17.7508 14.4518 17.3462 14.0471Z" fill="white"/>
</svg>
