<svg width="32" height="32" viewBox="0 0 32 32" fill="none" xmlns="http://www.w3.org/2000/svg">
<path id="Subtract" fill-rule="evenodd" clip-rule="evenodd" d="M16.3172 31.1451C24.9177 31.1451 31.8897 24.173 31.8897 15.5726C31.8897 6.97207 24.9177 0 16.3172 0C7.7167 0 0.744629 6.97207 0.744629 15.5726C0.744629 24.173 7.7167 31.1451 16.3172 31.1451ZM18.5352 6.31727C17.9328 6.3182 17.3291 6.31912 16.7228 6.32838C16.7083 8.26706 16.7089 10.2057 16.7095 12.1463C16.7099 13.3108 16.7102 14.4759 16.7073 15.6421C16.7053 16.0057 16.7059 16.3687 16.7066 16.7314C16.7084 17.7469 16.7102 18.7604 16.6533 19.7781C16.6461 20.0615 16.502 20.3106 16.3628 20.5513C16.3541 20.5662 16.3455 20.5812 16.3369 20.5961C15.8894 21.3291 15.0637 21.8307 14.1995 21.8384C12.9031 21.9541 11.6839 20.8893 11.4987 19.6238C11.4975 19.5591 11.4954 19.494 11.4933 19.4287C11.4817 19.0738 11.4699 18.7139 11.6068 18.3814C11.7997 17.8336 12.1701 17.3474 12.6562 17.0311C13.3275 16.5681 14.2226 16.4986 14.9866 16.7456C14.9866 16.2561 14.9951 15.7667 15.0036 15.2772C15.0149 14.6246 15.0263 13.9721 15.0174 13.3195C13.343 13.0031 11.5528 13.5355 10.2718 14.6467C9.14523 15.6035 8.41989 17.0079 8.28099 18.474C8.26556 18.8521 8.27328 19.238 8.28871 19.6238C8.45075 21.4294 9.54649 23.1116 11.1052 24.0299C12.0466 24.5854 13.1501 24.8864 14.2535 24.8247C16.0514 24.7938 17.8031 23.8292 18.8139 22.3477C19.4389 21.4603 19.7939 20.3877 19.8556 19.3074C19.8701 17.904 19.8695 16.4977 19.8689 15.0901C19.8685 14.2455 19.8682 13.4005 19.8711 12.5555C20.2723 12.8179 20.6813 13.0725 21.1211 13.2732C22.132 13.7516 23.2509 13.9831 24.362 14.0217V10.9119C23.1737 10.7808 21.9545 10.3872 21.0903 9.5307C20.226 8.69732 19.8016 7.49356 19.7399 6.31295C19.3385 6.31604 18.9371 6.31665 18.5352 6.31727Z" fill="white"/>
</svg>
