<svg width="32" height="32" viewBox="0 0 32 32" fill="none" xmlns="http://www.w3.org/2000/svg">
<path id="Subtract" fill-rule="evenodd" clip-rule="evenodd" d="M15.5652 31.1451C24.1657 31.1451 31.1378 24.173 31.1378 15.5726C31.1378 6.97207 24.1657 0 15.5652 0C6.96474 0 -0.00732422 6.97207 -0.00732422 15.5726C-0.00732422 24.173 6.96474 31.1451 15.5652 31.1451ZM19.1893 16.0623C20.2148 15.2711 20.9865 15.74 21.2599 16.2967C21.7483 17.2735 21.2013 17.7521 19.9609 18.5432C18.906 19.2172 17.4702 19.4809 16.5423 19.5688L17.3139 20.3599L20.2246 23.2706C20.6739 23.7199 20.6739 24.4329 20.2246 24.8529L20.0976 25.0092C19.6483 25.4487 18.9353 25.4487 18.4958 25.0092C17.7535 24.2669 16.6888 23.2022 15.5656 22.0985L12.6647 25.0092C12.2251 25.4487 11.5023 25.4487 11.0628 25.0092L10.9261 24.8529C10.4865 24.4329 10.4865 23.7199 10.9261 23.2706C11.6438 22.5433 12.6897 21.5066 13.779 20.4268L13.8465 20.3599L14.6279 19.5786C13.6902 19.4809 12.2349 19.2269 11.1702 18.5432C9.92979 17.7521 9.38282 17.2735 9.87119 16.2967C10.1447 15.74 10.9163 15.2711 11.9419 16.0623C13.3386 17.1758 15.5656 17.1758 15.5656 17.1758C15.5656 17.1758 17.7925 17.1758 19.1893 16.0623ZM18.0074 10.7489C18.0074 9.41072 16.9135 8.31678 15.5656 8.31678C14.2177 8.31678 13.1237 9.41072 13.1237 10.7489C13.1237 12.0967 14.2177 13.1809 15.5656 13.1809C16.9135 13.1809 18.0074 12.0967 18.0074 10.7489ZM20.5079 10.7489C20.5079 13.4837 18.3004 15.6911 15.5656 15.6911C12.8307 15.6911 10.6233 13.4837 10.6233 10.7489C10.6233 9.43807 11.144 8.18098 12.0708 7.25412C12.9977 6.32726 14.2548 5.80656 15.5656 5.80656C16.8763 5.80656 18.1334 6.32726 19.0603 7.25412C19.9872 8.18098 20.5079 9.43807 20.5079 10.7489Z" fill="white"/>
</svg>
