<svg width="32" height="32" viewBox="0 0 32 32" fill="none" xmlns="http://www.w3.org/2000/svg">
<path id="Subtract" fill-rule="evenodd" clip-rule="evenodd" d="M16.0686 31.1451C24.6691 31.1451 31.6412 24.173 31.6412 15.5726C31.6412 6.97207 24.6691 0 16.0686 0C7.46816 0 0.496094 6.97207 0.496094 15.5726C0.496094 24.173 7.46816 31.1451 16.0686 31.1451ZM18.6031 15.5727L14.4797 17.9562V13.1892L18.6031 15.5727ZM23.8865 13.2448C23.8388 12.6092 23.7673 12.1087 23.664 11.7353C23.4654 11.0203 23.0046 10.5594 22.2896 10.3608C21.4712 10.1384 19.3976 10.0112 16.0687 10.0112L14.8054 10.0589C13.9315 10.0589 12.986 10.0828 11.9532 10.1384C10.9045 10.186 10.2212 10.2575 9.84778 10.3608C9.13273 10.5594 8.67193 11.0203 8.4733 11.7353C8.25084 12.5536 8.12372 13.8328 8.12372 15.5727L8.17139 16.2401C8.17139 16.7168 8.19523 17.265 8.25084 17.9006C8.29851 18.5362 8.37002 19.0367 8.4733 19.4101C8.67193 20.1252 9.13273 20.586 9.84778 20.7846C10.6661 21.007 12.7397 21.1342 16.0687 21.1342L17.3319 21.0865C18.2059 21.0865 19.1513 21.0627 20.1841 21.007C21.2329 20.9594 21.9161 20.8879 22.2896 20.7846C23.0046 20.586 23.4654 20.1252 23.664 19.4101C23.8865 18.5918 24.0136 17.3126 24.0136 15.5727L23.9659 14.9053C23.9659 14.4286 23.9421 13.8804 23.8865 13.2448Z" fill="white"/>
</svg>
